<svg height="512pt" viewBox="0 0 512 512" width="512pt" xmlns="http://www.w3.org/2000/svg"><path d="m82.050781 439.949219c-2.550781 0-5.097656-.964844-7.046875-2.902344l-.257812-.257813c-3.894532-3.921874-3.871094-10.25.046875-14.144531 3.921875-3.890625 10.25-3.867187 14.144531.050781l.15625.160157c3.921875 3.890625 3.941406 10.222656.050781 14.140625-1.953125 1.96875-4.523437 2.953125-7.09375 2.953125zm0 0"/><path d="m256.058594 512c-53.5625 0-106.003906-16.757812-149.480469-48.082031-4.480469-3.230469-5.496094-9.476563-2.269531-13.960938 3.230468-4.480469 9.480468-5.496093 13.960937-2.265625 94.234375 67.886719 222.339844 57.453125 304.605469-24.8125 92.019531-92.015625 92.019531-241.738281 0-333.753906-92.015625-92.019531-241.738281-92.019531-333.753906 0-82.140625 82.136719-92.664063 210.121094-25.019532 304.316406 3.21875 4.484375 2.195313 10.730469-2.292968 13.953125-4.484375 3.222657-10.730469 2.199219-13.953125-2.289062-35-48.738281-51.726563-108.703125-47.097657-168.851563 4.675782-60.8125 31.035157-118.085937 74.21875-161.273437 48.355469-48.351563 112.640626-74.980469 181.023438-74.980469 68.378906 0 132.667969 26.628906 181.019531 74.980469 48.351563 48.351562 74.980469 112.640625 74.980469 181.019531 0 68.382812-26.628906 132.667969-74.980469 181.023438-43.234375 43.230468-100.574219 69.59375-161.457031 74.234374-6.507812.496094-13.015625.742188-19.503906.742188zm0 0"/><path d="m259.472656 394c-44.816406 0-81.273437-36.457031-81.273437-81.269531 0-5.523438 4.476562-10 10-10h142.546875c5.519531 0 10 4.476562 10 10-.003906 44.8125-36.460938 81.269531-81.273438 81.269531zm-60.457031-71.269531c4.785156 29.042969 30.074219 51.269531 60.457031 51.269531 30.378906 0 55.667969-22.226562 60.457032-51.269531zm0 0"/><path d="m343.023438 256.5c-1.960938 0-3.925782-.574219-5.621094-1.730469-.519532-.351562-12.800782-8.738281-25.246094-20.25-18.359375-16.984375-27.285156-31.496093-27.285156-44.367187 0-22.339844 16.996094-40.515625 37.890625-40.515625 7.21875 0 14.25 2.222656 20.261719 6.28125 6.011718-4.058594 13.042968-6.28125 20.261718-6.28125 20.894532 0 37.890625 18.175781 37.890625 40.515625 0 12.871094-8.925781 27.382812-27.285156 44.367187-12.441406 11.511719-24.726563 19.898438-25.242187 20.25-1.695313 1.15625-3.660157 1.730469-5.625 1.730469zm-20.261719-86.863281c-9.863281 0-17.890625 9.203125-17.890625 20.515625 0 11.21875 21.066406 31.382812 38.148437 44.070312 17.082031-12.703125 38.15625-32.882812 38.15625-44.070312 0-11.3125-8.023437-20.515625-17.890625-20.515625-4.792968 0-9.300781 2.160156-12.695312 6.085937-1.902344 2.195313-4.660156 3.460938-7.566406 3.460938-2.902344 0-5.664063-1.265625-7.5625-3.460938-3.394532-3.925781-7.90625-6.085937-12.699219-6.085937zm0 0"/><path d="m168.972656 256.5c-1.964844 0-3.925781-.574219-5.625-1.730469-.515625-.351562-12.796875-8.738281-25.242187-20.25-18.359375-16.984375-27.285157-31.496093-27.285157-44.367187 0-22.339844 17-40.515625 37.890626-40.515625 7.21875 0 14.25 2.222656 20.261718 6.28125 6.011719-4.058594 13.042969-6.28125 20.261719-6.28125 20.894531 0 37.890625 18.175781 37.890625 40.515625 0 12.871094-8.925781 27.382812-27.285156 44.367187-12.445313 11.511719-24.726563 19.898438-25.246094 20.25-1.695312 1.15625-3.65625 1.730469-5.621094 1.730469zm-20.261718-86.863281c-9.867188 0-17.890626 9.203125-17.890626 20.515625 0 11.21875 21.066407 31.382812 38.148438 44.070312 17.082031-12.703125 38.15625-32.882812 38.15625-44.070312 0-11.3125-8.027344-20.515625-17.890625-20.515625-4.792969 0-9.304687 2.160156-12.699219 6.085937-1.898437 2.195313-4.660156 3.460938-7.5625 3.460938s-5.664062-1.265625-7.5625-3.460938c-3.398437-3.925781-7.90625-6.085937-12.699218-6.085937zm0 0"/></svg>