<svg id="Calque_1" data-name="Calque 1" xmlns="http://www.w3.org/2000/svg" viewBox="0 0 1231.97 421.64"><defs><style>.cls-1{fill:#fff;}.cls-2,.cls-5{fill:#3756ed;}.cls-3{fill:none;}.cls-4,.cls-5{isolation:isolate;}.cls-5{font-size:184.29px;font-family:BerlinSansFB-Reg, Berlin Sans FB;}</style></defs><title>logook</title><path class="cls-1" d="M146.47,182.6l-66.2,66.2-20.2-20.2,2.9-2.3C88,205.4,115.17,189.2,146.47,182.6Z"/><path class="cls-2" d="M340.17,325.7,258.88,407l-10.21,10.2L147.58,316.1c6.7-13,16.8-24.8,30.5-35.3,8.2-6.2,16.59-12.2,24.9-18.2,8.6-6.3,16.2-13.5,21.2-23,2.6-5,5.1-10.8,1.1-15.8-4.2-5.3-10-2.1-15-.6-4.1,1.2-8.1,2.7-12.1,4-.5-.7-.9-1.4-1.4-2.1,2-1.6,3.7-3.7,5.8-4.8,4.59-2.5,9.5-4.5,14.3-6.8,5.4-2.6,8.2-7,7-11.5A9.47,9.47,0,0,0,213,194.8c-7.7,1.3-15.4,3.7-22.9,5.7a74.41,74.41,0,0,0-7.4,2.8,17.67,17.67,0,0,0-1.2-1.7c2-1.7,3.8-3.8,6-5,3.3-1.8,7.2-2.6,10.3-4.6,2.4-1.5,4-4.2,6.1-6.3-2.6-1.8-5-4.9-7.7-5.1-9.4-.9-19.1-1.7-28.6-1.1a171.18,171.18,0,0,0-17.7,2.3c-1.2.2-2.4.5-3.5.7-31.3,6.6-58.5,22.8-83.6,43.7l-2.9,2.3-25-25.1A119.06,119.06,0,0,1,109.17.5c3.3-.3,6.6-.5,9.9-.5a119,119,0,0,1,84.2,34.9l152.4,152.4a156.21,156.21,0,0,0-20.3-5.6c-1.9-.4-3.8-.8-5.8-1.1-13.4-2.2-26.7-2.4-40,.5a36.53,36.53,0,0,0-5.6,1.8c-3.59,1.5-4,4-.9,6.1,4.8,3.3,9.9,5.8,14.9,8.9a60.92,60.92,0,0,1,5.1,3.9,16.18,16.18,0,0,1-1,1.8c-3.6-1.1-7.2-2.4-10.8-3.4-5.8-1.8-11.8-3.8-17.7-5.2-2.2-.5-5-.6-6.8.6-2.7,1.6-5.9,4.1-6.6,6.8s1.1,6.4,3,8.5c2.41,2.5,6.3,3.4,9.3,5.4,4.2,2.8,8.2,5.9,12.3,9-.4.6-.7,1.3-1.1,2-1.79-.4-3.79-.8-5.79-1.2-4.3-1-8.71-2.5-13.21-2.9-5.59-.4-8,2.6-6.7,8.2,2.1,9.4,7.2,17,14.3,23.1,6.6,5.6,13.8,10.6,20.9,15.5C314.38,284.4,331.08,302.1,340.17,325.7Z"/><path class="cls-1" d="M224.28,239.6c-5,9.5-12.6,16.7-21.2,23-8.3,6-16.7,12.1-24.91,18.2-13.79,10.5-23.79,22.3-30.5,35.3L80.38,248.8l66.2-66.2c1.09-.2,2.3-.5,3.5-.7a171.18,171.18,0,0,1,17.7-2.3c9.5-.6,19.2.2,28.6,1.1,2.7.2,5.09,3.3,7.7,5.1-2.1,2.2-3.7,4.8-6.1,6.3-3.1,1.9-7,2.8-10.3,4.6-2.2,1.3-4,3.4-6,5a17.67,17.67,0,0,1,1.2,1.7,74.41,74.41,0,0,1,7.4-2.8c7.6-2,15.3-4.4,22.9-5.7a9.47,9.47,0,0,1,10.9,7.2c1.2,4.5-1.5,9-7,11.5-4.8,2.3-9.7,4.3-14.3,6.8-2.1,1.1-3.8,3.2-5.8,4.8.5.6.9,1.4,1.4,2.1,4-1.3,8-2.8,12.1-4,5-1.5,10.9-4.7,15,.6C229.38,228.8,226.88,234.6,224.28,239.6Z"/><path class="cls-1" d="M417.17,248.8l-74.09,74-2.91,2.9c-9-23.6-25.7-41.3-46.79-55.7-7.1-5-14.21-9.9-20.91-15.5a42.62,42.62,0,0,1-14.3-23.1c-1.29-5.6,1.1-8.6,6.71-8.2,4.5.4,8.9,1.8,13.2,2.9,2,.4,3.9.8,5.8,1.2.4-.7.7-1.4,1.09-2-4.09-3-8.09-6.2-12.3-9-3-2-6.9-3-9.29-5.4-1.91-2.1-3.6-5.9-3-8.5s3.9-5.2,6.59-6.8c1.8-1.1,4.6-1,6.8-.6,5.9,1.4,11.8,3.4,17.7,5.2,3.6,1,7.2,2.3,10.8,3.4.4-.6.6-1.3,1-1.8a57.68,57.68,0,0,0-5.1-3.9c-5-3-10.09-5.6-14.9-8.9-3.1-2.1-2.7-4.6.9-6.1a53,53,0,0,1,5.6-1.8c13.3-2.9,26.5-2.7,40-.5,1.9.3,3.8.7,5.8,1.1a147.91,147.91,0,0,1,20.3,5.6Z"/><path class="cls-1" d="M433.58,232.4l-16.41,16.4-61.4-61.4c18.1,6.2,34.9,15.5,50.9,26.6,8,5.6,15.5,11.8,23.71,17A9.19,9.19,0,0,0,433.58,232.4Z"/><path class="cls-2" d="M497.38,119.2a118.53,118.53,0,0,1-34.91,84.2l-28.9,28.9a8.71,8.71,0,0,1-3.1-1.4c-8.2-5.2-15.8-11.4-23.7-17-16-11.1-32.9-20.4-50.9-26.6a156.21,156.21,0,0,0-20.3-5.6c-1.9-.4-3.8-.8-5.8-1.1-13.4-2.2-26.7-2.4-40,.5a36.53,36.53,0,0,0-5.6,1.8c-3.59,1.5-4,4-.9,6.1,4.8,3.3,9.9,5.8,14.9,8.9a60.92,60.92,0,0,1,5.1,3.9,16.18,16.18,0,0,1-1,1.8c-3.6-1.1-7.2-2.4-10.8-3.4-5.8-1.8-11.8-3.8-17.7-5.2-2.2-.5-5-.6-6.8.6-2.7,1.6-5.9,4.1-6.59,6.8s1.09,6.4,3,8.5c2.4,2.5,6.29,3.4,9.29,5.4,4.21,2.8,8.21,5.9,12.3,9-.4.6-.7,1.3-1.09,2-1.8-.4-3.8-.8-5.8-1.2-4.3-1-8.7-2.5-13.2-2.9-5.6-.4-8,2.6-6.71,8.2,2.1,9.4,7.21,17,14.3,23.1,6.6,5.6,13.8,10.6,20.91,15.5,21,14.5,37.7,32.1,46.79,55.7L258.88,407l-10.21,10.2L147.58,316.1c6.7-13,16.8-24.8,30.5-35.3,8.2-6.2,16.59-12.2,24.9-18.2,8.6-6.3,16.2-13.5,21.2-23,2.6-5,5.1-10.8,1.1-15.8-4.2-5.3-10-2.1-15-.6-4.1,1.2-8.1,2.7-12.1,4-.5-.7-.9-1.4-1.4-2.1,2-1.6,3.7-3.7,5.8-4.8,4.59-2.5,9.5-4.5,14.3-6.8,5.4-2.6,8.2-7,7-11.5A9.47,9.47,0,0,0,213,194.8c-7.7,1.3-15.4,3.7-22.9,5.7a74.41,74.41,0,0,0-7.4,2.8,17.67,17.67,0,0,0-1.2-1.7c2-1.7,3.8-3.8,6-5,3.3-1.8,7.2-2.6,10.3-4.6,2.4-1.5,4-4.2,6.1-6.3-2.6-1.8-5-4.9-7.7-5.1-9.4-.9-19.1-1.7-28.6-1.1a171.18,171.18,0,0,0-17.7,2.3c-1.2.2-2.4.5-3.5.7L165,163.9l83.6-83.6L285.87,43l8.1-8.1a119.21,119.21,0,0,1,203.41,84.3Z"/><rect class="cls-3" x="566.88" y="35.8" width="648" height="381.4"/><g class="cls-4"><text class="cls-5" transform="translate(566.89 163.11)">Meeting </text><text class="cls-5" transform="translate(566.89 384.21)">Blind</text></g></svg>