<svg id="Calque_1" data-name="Calque 1" xmlns="http://www.w3.org/2000/svg" viewBox="0 0 790 790"><defs><style>.cls-1,.cls-3{fill:#a2b1ea;}.cls-1{stroke:#fff;stroke-miterlimit:10;stroke-width:26px;}.cls-2{fill:#fff;}</style></defs><title>smileyok</title><circle class="cls-1" cx="395" cy="395" r="382"/><path class="cls-2" d="M311.1,349.2,241.4,419l-88.6-88.6a49.31,49.31,0,0,1,0-69.8h0a49.31,49.31,0,0,1,69.8,0Z"/><path class="cls-2" d="M241.4,419l-69.8-69.8,88.6-88.6a49.31,49.31,0,0,1,69.8,0h0a49.31,49.31,0,0,1,0,69.8Z"/><path class="cls-2" d="M613.1,349.2,543.3,419l-88.6-88.6a49.31,49.31,0,0,1,0-69.8h0a49.31,49.31,0,0,1,69.8,0Z"/><path class="cls-2" d="M543.4,419l-69.8-69.8,88.6-88.6a49.31,49.31,0,0,1,69.8,0h0a49.31,49.31,0,0,1,0,69.8Z"/><path class="cls-3" d="M228,539.8s157.7,215.8,334,0"/><path class="cls-2" d="M228,539.8a436.63,436.63,0,0,0,38,31.9,327.05,327.05,0,0,0,40.7,26.2l5.3,2.8,5.3,2.6c1.8.8,3.6,1.7,5.4,2.5l5.4,2.4a206.93,206.93,0,0,0,22,7.9,167.79,167.79,0,0,0,45.4,7c1.9,0,3.8.1,5.7,0s3.8-.1,5.7-.3,3.8-.3,5.7-.4l5.7-.7a173.21,173.21,0,0,0,22.5-4.8,190.11,190.11,0,0,0,21.9-7.8l5.4-2.4c1.8-.8,3.5-1.7,5.3-2.6l2.7-1.3,2.6-1.4,5.2-2.8A326.43,326.43,0,0,0,524,571.7c3.3-2.5,6.4-5.1,9.6-7.6l9.5-7.9c3.1-2.7,6.3-5.4,9.4-8.2s6.2-5.6,9.4-8.3q-3.15,5.4-6.6,10.8c-2.3,3.5-4.7,7-7.2,10.4s-5.1,6.7-7.7,10.1c-1.3,1.6-2.7,3.2-4.1,4.9s-2.7,3.3-4.1,4.8a231.35,231.35,0,0,1-38,34.5,184.38,184.38,0,0,1-46.6,24.3,163.88,163.88,0,0,1-25.9,6.6,149.79,149.79,0,0,1-26.8,2,163,163,0,0,1-52.4-9.5A185.3,185.3,0,0,1,318.4,628l-5.8-3.1c-1.9-1.1-3.8-2.2-5.6-3.3l-5.5-3.5-5.4-3.6a239.85,239.85,0,0,1-38.6-33.8,251.34,251.34,0,0,1-16.2-19.6A211.15,211.15,0,0,1,228,539.8Z"/></svg>